<mxfile host="app.diagrams.net" modified="2023-09-22T17:32:15.486Z" agent="Mozilla/5.0 (Windows NT 10.0; Win64; x64) AppleWebKit/537.36 (KHTML, like Gecko) Chrome/116.0.0.0 Safari/537.36" version="21.8.0" etag="4ilB5XcgJU6VKrD3Lh9O" type="github">
  <diagram name="PÃ¡gina-1" id="aCK5VUMizwox7v2f2RAr">
    <mxGraphModel>
      <root>
        <mxCell id="0" />
        <mxCell id="1" parent="0" />
      </root>
    </mxGraphModel>
  </diagram>
</mxfile>
